<svg width="18" height="18" viewBox="0 0 18 18" fill="none" xmlns="http://www.w3.org/2000/svg">
<path d="M7.33337 7.24725H10.1285V5.16166L13.126 8.10612L10.1285 11.0506V8.96114H7.33337V11.5077H5.61874V8.20078C5.61874 7.67361 6.04585 7.24725 6.57225 7.24725H7.3326H7.33337ZM17.6104 9.94237L9.94226 17.6106C9.68291 17.8699 9.34121 18 9.00029 18C8.65936 18 8.31844 17.8699 8.05832 17.6106L0.390179 9.94237C0.138525 9.69071 0 9.35594 0 9.00038C0 8.64483 0.138525 8.31006 0.390179 8.0584L8.05832 0.390183C8.30997 0.138527 8.64474 0 9.00029 0C9.35584 0 9.69061 0.138527 9.94226 0.390183L17.6104 8.0584C18.1299 8.57788 18.1299 9.42289 17.6104 9.94237ZM16.376 9.00038L9.00029 1.62461L1.62459 9.00038L9.00029 16.3762L16.376 9.00038Z" fill="#E3C76C"/>
</svg>
